<svg xmlns="http://www.w3.org/2000/svg" width="512" height="1024" viewBox="0 0 512 1024">
<rect width="512" height="1024" fill="#191f2d"/>
<rect x="6.0" y="0" width="73.3" height="1024" fill="#2b384c"/><rect x="91.3" y="0" width="73.3" height="1024" fill="#2b384c"/><rect x="176.7" y="0" width="73.3" height="1024" fill="#2b384c"/><rect x="262.0" y="0" width="73.3" height="1024" fill="#2b384c"/><rect x="347.3" y="0" width="73.3" height="1024" fill="#2b384c"/><rect x="432.7" y="0" width="73.3" height="1024" fill="#2b384c"/>
<rect x="15.0" y="9.0" width="55.3" height="33.2" fill="#60bedc"/><rect x="15.0" y="9.0" width="55.3" height="3" fill="#111722" opacity=".72"/><rect x="100.3" y="9.0" width="55.3" height="33.2" fill="#60bedc"/><rect x="100.3" y="9.0" width="55.3" height="3" fill="#111722" opacity=".72"/><rect x="185.7" y="9.0" width="55.3" height="33.2" fill="#60bedc"/><rect x="185.7" y="9.0" width="55.3" height="3" fill="#111722" opacity=".72"/><rect x="271.0" y="9.0" width="55.3" height="33.2" fill="#f4da7e"/><rect x="271.0" y="9.0" width="55.3" height="3" fill="#111722" opacity=".72"/><rect x="356.3" y="9.0" width="55.3" height="33.2" fill="#191f2d"/><rect x="356.3" y="9.0" width="55.3" height="3" fill="#111722" opacity=".72"/><rect x="441.7" y="9.0" width="55.3" height="33.2" fill="#60bedc"/><rect x="441.7" y="9.0" width="55.3" height="3" fill="#111722" opacity=".72"/><rect x="15.0" y="60.2" width="55.3" height="33.2" fill="#60bedc"/><rect x="15.0" y="60.2" width="55.3" height="3" fill="#111722" opacity=".72"/><rect x="100.3" y="60.2" width="55.3" height="33.2" fill="#60bedc"/><rect x="100.3" y="60.2" width="55.3" height="3" fill="#111722" opacity=".72"/><rect x="185.7" y="60.2" width="55.3" height="33.2" fill="#191f2d"/><rect x="185.7" y="60.2" width="55.3" height="3" fill="#111722" opacity=".72"/><rect x="271.0" y="60.2" width="55.3" height="33.2" fill="#60bedc"/><rect x="271.0" y="60.2" width="55.3" height="3" fill="#111722" opacity=".72"/><rect x="356.3" y="60.2" width="55.3" height="33.2" fill="#191f2d"/><rect x="356.3" y="60.2" width="55.3" height="3" fill="#111722" opacity=".72"/><rect x="441.7" y="60.2" width="55.3" height="33.2" fill="#60bedc"/><rect x="441.7" y="60.2" width="55.3" height="3" fill="#111722" opacity=".72"/><rect x="15.0" y="111.4" width="55.3" height="33.2" fill="#191f2d"/><rect x="15.0" y="111.4" width="55.3" height="3" fill="#111722" opacity=".72"/><rect x="100.3" y="111.4" width="55.3" height="33.2" fill="#f4da7e"/><rect x="100.3" y="111.4" width="55.3" height="3" fill="#111722" opacity=".72"/><rect x="185.7" y="111.4" width="55.3" height="33.2" fill="#191f2d"/><rect x="185.7" y="111.4" width="55.3" height="3" fill="#111722" opacity=".72"/><rect x="271.0" y="111.4" width="55.3" height="33.2" fill="#60bedc"/><rect x="271.0" y="111.4" width="55.3" height="3" fill="#111722" opacity=".72"/><rect x="356.3" y="111.4" width="55.3" height="33.2" fill="#60bedc"/><rect x="356.3" y="111.4" width="55.3" height="3" fill="#111722" opacity=".72"/><rect x="441.7" y="111.4" width="55.3" height="33.2" fill="#f4da7e"/><rect x="441.7" y="111.4" width="55.3" height="3" fill="#111722" opacity=".72"/><rect x="15.0" y="162.6" width="55.3" height="33.2" fill="#191f2d"/><rect x="15.0" y="162.6" width="55.3" height="3" fill="#111722" opacity=".72"/><rect x="100.3" y="162.6" width="55.3" height="33.2" fill="#60bedc"/><rect x="100.3" y="162.6" width="55.3" height="3" fill="#111722" opacity=".72"/><rect x="185.7" y="162.6" width="55.3" height="33.2" fill="#60bedc"/><rect x="185.7" y="162.6" width="55.3" height="3" fill="#111722" opacity=".72"/><rect x="271.0" y="162.6" width="55.3" height="33.2" fill="#60bedc"/><rect x="271.0" y="162.6" width="55.3" height="3" fill="#111722" opacity=".72"/><rect x="356.3" y="162.6" width="55.3" height="33.2" fill="#f4da7e"/><rect x="356.3" y="162.6" width="55.3" height="3" fill="#111722" opacity=".72"/><rect x="441.7" y="162.6" width="55.3" height="33.2" fill="#191f2d"/><rect x="441.7" y="162.6" width="55.3" height="3" fill="#111722" opacity=".72"/><rect x="15.0" y="213.8" width="55.3" height="33.2" fill="#60bedc"/><rect x="15.0" y="213.8" width="55.3" height="3" fill="#111722" opacity=".72"/><rect x="100.3" y="213.8" width="55.3" height="33.2" fill="#60bedc"/><rect x="100.3" y="213.8" width="55.3" height="3" fill="#111722" opacity=".72"/><rect x="185.7" y="213.8" width="55.3" height="33.2" fill="#60bedc"/><rect x="185.7" y="213.8" width="55.3" height="3" fill="#111722" opacity=".72"/><rect x="271.0" y="213.8" width="55.3" height="33.2" fill="#191f2d"/><rect x="271.0" y="213.8" width="55.3" height="3" fill="#111722" opacity=".72"/><rect x="356.3" y="213.8" width="55.3" height="33.2" fill="#60bedc"/><rect x="356.3" y="213.8" width="55.3" height="3" fill="#111722" opacity=".72"/><rect x="441.7" y="213.8" width="55.3" height="33.2" fill="#191f2d"/><rect x="441.7" y="213.8" width="55.3" height="3" fill="#111722" opacity=".72"/><rect x="15.0" y="265.0" width="55.3" height="33.2" fill="#60bedc"/><rect x="15.0" y="265.0" width="55.3" height="3" fill="#111722" opacity=".72"/><rect x="100.3" y="265.0" width="55.3" height="33.2" fill="#191f2d"/><rect x="100.3" y="265.0" width="55.3" height="3" fill="#111722" opacity=".72"/><rect x="185.7" y="265.0" width="55.3" height="33.2" fill="#f4da7e"/><rect x="185.7" y="265.0" width="55.3" height="3" fill="#111722" opacity=".72"/><rect x="271.0" y="265.0" width="55.3" height="33.2" fill="#191f2d"/><rect x="271.0" y="265.0" width="55.3" height="3" fill="#111722" opacity=".72"/><rect x="356.3" y="265.0" width="55.3" height="33.2" fill="#60bedc"/><rect x="356.3" y="265.0" width="55.3" height="3" fill="#111722" opacity=".72"/><rect x="441.7" y="265.0" width="55.3" height="33.2" fill="#60bedc"/><rect x="441.7" y="265.0" width="55.3" height="3" fill="#111722" opacity=".72"/><rect x="15.0" y="316.2" width="55.3" height="33.2" fill="#60bedc"/><rect x="15.0" y="316.2" width="55.3" height="3" fill="#111722" opacity=".72"/><rect x="100.3" y="316.2" width="55.3" height="33.2" fill="#191f2d"/><rect x="100.3" y="316.2" width="55.3" height="3" fill="#111722" opacity=".72"/><rect x="185.7" y="316.2" width="55.3" height="33.2" fill="#60bedc"/><rect x="185.7" y="316.2" width="55.3" height="3" fill="#111722" opacity=".72"/><rect x="271.0" y="316.2" width="55.3" height="33.2" fill="#60bedc"/><rect x="271.0" y="316.2" width="55.3" height="3" fill="#111722" opacity=".72"/><rect x="356.3" y="316.2" width="55.3" height="33.2" fill="#60bedc"/><rect x="356.3" y="316.2" width="55.3" height="3" fill="#111722" opacity=".72"/><rect x="441.7" y="316.2" width="55.3" height="33.2" fill="#f4da7e"/><rect x="441.7" y="316.2" width="55.3" height="3" fill="#111722" opacity=".72"/><rect x="15.0" y="367.4" width="55.3" height="33.2" fill="#f4da7e"/><rect x="15.0" y="367.4" width="55.3" height="3" fill="#111722" opacity=".72"/><rect x="100.3" y="367.4" width="55.3" height="33.2" fill="#60bedc"/><rect x="100.3" y="367.4" width="55.3" height="3" fill="#111722" opacity=".72"/><rect x="185.7" y="367.4" width="55.3" height="33.2" fill="#60bedc"/><rect x="185.7" y="367.4" width="55.3" height="3" fill="#111722" opacity=".72"/><rect x="271.0" y="367.4" width="55.3" height="33.2" fill="#60bedc"/><rect x="271.0" y="367.4" width="55.3" height="3" fill="#111722" opacity=".72"/><rect x="356.3" y="367.4" width="55.3" height="33.2" fill="#191f2d"/><rect x="356.3" y="367.4" width="55.3" height="3" fill="#111722" opacity=".72"/><rect x="441.7" y="367.4" width="55.3" height="33.2" fill="#60bedc"/><rect x="441.7" y="367.4" width="55.3" height="3" fill="#111722" opacity=".72"/><rect x="15.0" y="418.6" width="55.3" height="33.2" fill="#60bedc"/><rect x="15.0" y="418.6" width="55.3" height="3" fill="#111722" opacity=".72"/><rect x="100.3" y="418.6" width="55.3" height="33.2" fill="#60bedc"/><rect x="100.3" y="418.6" width="55.3" height="3" fill="#111722" opacity=".72"/><rect x="185.7" y="418.6" width="55.3" height="33.2" fill="#191f2d"/><rect x="185.7" y="418.6" width="55.3" height="3" fill="#111722" opacity=".72"/><rect x="271.0" y="418.6" width="55.3" height="33.2" fill="#f4da7e"/><rect x="271.0" y="418.6" width="55.3" height="3" fill="#111722" opacity=".72"/><rect x="356.3" y="418.6" width="55.3" height="33.2" fill="#191f2d"/><rect x="356.3" y="418.6" width="55.3" height="3" fill="#111722" opacity=".72"/><rect x="441.7" y="418.6" width="55.3" height="33.2" fill="#60bedc"/><rect x="441.7" y="418.6" width="55.3" height="3" fill="#111722" opacity=".72"/><rect x="15.0" y="469.8" width="55.3" height="33.2" fill="#191f2d"/><rect x="15.0" y="469.8" width="55.3" height="3" fill="#111722" opacity=".72"/><rect x="100.3" y="469.8" width="55.3" height="33.2" fill="#60bedc"/><rect x="100.3" y="469.8" width="55.3" height="3" fill="#111722" opacity=".72"/><rect x="185.7" y="469.8" width="55.3" height="33.2" fill="#191f2d"/><rect x="185.7" y="469.8" width="55.3" height="3" fill="#111722" opacity=".72"/><rect x="271.0" y="469.8" width="55.3" height="33.2" fill="#60bedc"/><rect x="271.0" y="469.8" width="55.3" height="3" fill="#111722" opacity=".72"/><rect x="356.3" y="469.8" width="55.3" height="33.2" fill="#60bedc"/><rect x="356.3" y="469.8" width="55.3" height="3" fill="#111722" opacity=".72"/><rect x="441.7" y="469.8" width="55.3" height="33.2" fill="#60bedc"/><rect x="441.7" y="469.8" width="55.3" height="3" fill="#111722" opacity=".72"/><rect x="15.0" y="521.0" width="55.3" height="33.2" fill="#191f2d"/><rect x="15.0" y="521.0" width="55.3" height="3" fill="#111722" opacity=".72"/><rect x="100.3" y="521.0" width="55.3" height="33.2" fill="#f4da7e"/><rect x="100.3" y="521.0" width="55.3" height="3" fill="#111722" opacity=".72"/><rect x="185.7" y="521.0" width="55.3" height="33.2" fill="#60bedc"/><rect x="185.7" y="521.0" width="55.3" height="3" fill="#111722" opacity=".72"/><rect x="271.0" y="521.0" width="55.3" height="33.2" fill="#60bedc"/><rect x="271.0" y="521.0" width="55.3" height="3" fill="#111722" opacity=".72"/><rect x="356.3" y="521.0" width="55.3" height="33.2" fill="#60bedc"/><rect x="356.3" y="521.0" width="55.3" height="3" fill="#111722" opacity=".72"/><rect x="441.7" y="521.0" width="55.3" height="33.2" fill="#191f2d"/><rect x="441.7" y="521.0" width="55.3" height="3" fill="#111722" opacity=".72"/><rect x="15.0" y="572.2" width="55.3" height="33.2" fill="#f4da7e"/><rect x="15.0" y="572.2" width="55.3" height="3" fill="#111722" opacity=".72"/><rect x="100.3" y="572.2" width="55.3" height="33.2" fill="#60bedc"/><rect x="100.3" y="572.2" width="55.3" height="3" fill="#111722" opacity=".72"/><rect x="185.7" y="572.2" width="55.3" height="33.2" fill="#60bedc"/><rect x="185.7" y="572.2" width="55.3" height="3" fill="#111722" opacity=".72"/><rect x="271.0" y="572.2" width="55.3" height="33.2" fill="#191f2d"/><rect x="271.0" y="572.2" width="55.3" height="3" fill="#111722" opacity=".72"/><rect x="356.3" y="572.2" width="55.3" height="33.2" fill="#f4da7e"/><rect x="356.3" y="572.2" width="55.3" height="3" fill="#111722" opacity=".72"/><rect x="441.7" y="572.2" width="55.3" height="33.2" fill="#191f2d"/><rect x="441.7" y="572.2" width="55.3" height="3" fill="#111722" opacity=".72"/><rect x="15.0" y="623.4" width="55.3" height="33.2" fill="#60bedc"/><rect x="15.0" y="623.4" width="55.3" height="3" fill="#111722" opacity=".72"/><rect x="100.3" y="623.4" width="55.3" height="33.2" fill="#191f2d"/><rect x="100.3" y="623.4" width="55.3" height="3" fill="#111722" opacity=".72"/><rect x="185.7" y="623.4" width="55.3" height="33.2" fill="#60bedc"/><rect x="185.7" y="623.4" width="55.3" height="3" fill="#111722" opacity=".72"/><rect x="271.0" y="623.4" width="55.3" height="33.2" fill="#191f2d"/><rect x="271.0" y="623.4" width="55.3" height="3" fill="#111722" opacity=".72"/><rect x="356.3" y="623.4" width="55.3" height="33.2" fill="#60bedc"/><rect x="356.3" y="623.4" width="55.3" height="3" fill="#111722" opacity=".72"/><rect x="441.7" y="623.4" width="55.3" height="33.2" fill="#60bedc"/><rect x="441.7" y="623.4" width="55.3" height="3" fill="#111722" opacity=".72"/><rect x="15.0" y="674.6" width="55.3" height="33.2" fill="#60bedc"/><rect x="15.0" y="674.6" width="55.3" height="3" fill="#111722" opacity=".72"/><rect x="100.3" y="674.6" width="55.3" height="33.2" fill="#191f2d"/><rect x="100.3" y="674.6" width="55.3" height="3" fill="#111722" opacity=".72"/><rect x="185.7" y="674.6" width="55.3" height="33.2" fill="#f4da7e"/><rect x="185.7" y="674.6" width="55.3" height="3" fill="#111722" opacity=".72"/><rect x="271.0" y="674.6" width="55.3" height="33.2" fill="#60bedc"/><rect x="271.0" y="674.6" width="55.3" height="3" fill="#111722" opacity=".72"/><rect x="356.3" y="674.6" width="55.3" height="33.2" fill="#60bedc"/><rect x="356.3" y="674.6" width="55.3" height="3" fill="#111722" opacity=".72"/><rect x="441.7" y="674.6" width="55.3" height="33.2" fill="#60bedc"/><rect x="441.7" y="674.6" width="55.3" height="3" fill="#111722" opacity=".72"/><rect x="15.0" y="725.8" width="55.3" height="33.2" fill="#60bedc"/><rect x="15.0" y="725.8" width="55.3" height="3" fill="#111722" opacity=".72"/><rect x="100.3" y="725.8" width="55.3" height="33.2" fill="#f4da7e"/><rect x="100.3" y="725.8" width="55.3" height="3" fill="#111722" opacity=".72"/><rect x="185.7" y="725.8" width="55.3" height="33.2" fill="#60bedc"/><rect x="185.7" y="725.8" width="55.3" height="3" fill="#111722" opacity=".72"/><rect x="271.0" y="725.8" width="55.3" height="33.2" fill="#60bedc"/><rect x="271.0" y="725.8" width="55.3" height="3" fill="#111722" opacity=".72"/><rect x="356.3" y="725.8" width="55.3" height="33.2" fill="#191f2d"/><rect x="356.3" y="725.8" width="55.3" height="3" fill="#111722" opacity=".72"/><rect x="441.7" y="725.8" width="55.3" height="33.2" fill="#f4da7e"/><rect x="441.7" y="725.8" width="55.3" height="3" fill="#111722" opacity=".72"/><rect x="15.0" y="777.0" width="55.3" height="33.2" fill="#f4da7e"/><rect x="15.0" y="777.0" width="55.3" height="3" fill="#111722" opacity=".72"/><rect x="100.3" y="777.0" width="55.3" height="33.2" fill="#60bedc"/><rect x="100.3" y="777.0" width="55.3" height="3" fill="#111722" opacity=".72"/><rect x="185.7" y="777.0" width="55.3" height="33.2" fill="#191f2d"/><rect x="185.7" y="777.0" width="55.3" height="3" fill="#111722" opacity=".72"/><rect x="271.0" y="777.0" width="55.3" height="33.2" fill="#60bedc"/><rect x="271.0" y="777.0" width="55.3" height="3" fill="#111722" opacity=".72"/><rect x="356.3" y="777.0" width="55.3" height="33.2" fill="#191f2d"/><rect x="356.3" y="777.0" width="55.3" height="3" fill="#111722" opacity=".72"/><rect x="441.7" y="777.0" width="55.3" height="33.2" fill="#60bedc"/><rect x="441.7" y="777.0" width="55.3" height="3" fill="#111722" opacity=".72"/><rect x="15.0" y="828.2" width="55.3" height="33.2" fill="#191f2d"/><rect x="15.0" y="828.2" width="55.3" height="3" fill="#111722" opacity=".72"/><rect x="100.3" y="828.2" width="55.3" height="33.2" fill="#60bedc"/><rect x="100.3" y="828.2" width="55.3" height="3" fill="#111722" opacity=".72"/><rect x="185.7" y="828.2" width="55.3" height="33.2" fill="#191f2d"/><rect x="185.7" y="828.2" width="55.3" height="3" fill="#111722" opacity=".72"/><rect x="271.0" y="828.2" width="55.3" height="33.2" fill="#f4da7e"/><rect x="271.0" y="828.2" width="55.3" height="3" fill="#111722" opacity=".72"/><rect x="356.3" y="828.2" width="55.3" height="33.2" fill="#60bedc"/><rect x="356.3" y="828.2" width="55.3" height="3" fill="#111722" opacity=".72"/><rect x="441.7" y="828.2" width="55.3" height="33.2" fill="#60bedc"/><rect x="441.7" y="828.2" width="55.3" height="3" fill="#111722" opacity=".72"/><rect x="15.0" y="879.4" width="55.3" height="33.2" fill="#191f2d"/><rect x="15.0" y="879.4" width="55.3" height="3" fill="#111722" opacity=".72"/><rect x="100.3" y="879.4" width="55.3" height="33.2" fill="#60bedc"/><rect x="100.3" y="879.4" width="55.3" height="3" fill="#111722" opacity=".72"/><rect x="185.7" y="879.4" width="55.3" height="33.2" fill="#f4da7e"/><rect x="185.7" y="879.4" width="55.3" height="3" fill="#111722" opacity=".72"/><rect x="271.0" y="879.4" width="55.3" height="33.2" fill="#60bedc"/><rect x="271.0" y="879.4" width="55.3" height="3" fill="#111722" opacity=".72"/><rect x="356.3" y="879.4" width="55.3" height="33.2" fill="#60bedc"/><rect x="356.3" y="879.4" width="55.3" height="3" fill="#111722" opacity=".72"/><rect x="441.7" y="879.4" width="55.3" height="33.2" fill="#191f2d"/><rect x="441.7" y="879.4" width="55.3" height="3" fill="#111722" opacity=".72"/><rect x="15.0" y="930.6" width="55.3" height="33.2" fill="#60bedc"/><rect x="15.0" y="930.6" width="55.3" height="3" fill="#111722" opacity=".72"/><rect x="100.3" y="930.6" width="55.3" height="33.2" fill="#f4da7e"/><rect x="100.3" y="930.6" width="55.3" height="3" fill="#111722" opacity=".72"/><rect x="185.7" y="930.6" width="55.3" height="33.2" fill="#60bedc"/><rect x="185.7" y="930.6" width="55.3" height="3" fill="#111722" opacity=".72"/><rect x="271.0" y="930.6" width="55.3" height="33.2" fill="#191f2d"/><rect x="271.0" y="930.6" width="55.3" height="3" fill="#111722" opacity=".72"/><rect x="356.3" y="930.6" width="55.3" height="33.2" fill="#60bedc"/><rect x="356.3" y="930.6" width="55.3" height="3" fill="#111722" opacity=".72"/><rect x="441.7" y="930.6" width="55.3" height="33.2" fill="#191f2d"/><rect x="441.7" y="930.6" width="55.3" height="3" fill="#111722" opacity=".72"/><rect x="15.0" y="981.8" width="55.3" height="33.2" fill="#f4da7e"/><rect x="15.0" y="981.8" width="55.3" height="3" fill="#111722" opacity=".72"/><rect x="100.3" y="981.8" width="55.3" height="33.2" fill="#191f2d"/><rect x="100.3" y="981.8" width="55.3" height="3" fill="#111722" opacity=".72"/><rect x="185.7" y="981.8" width="55.3" height="33.2" fill="#60bedc"/><rect x="185.7" y="981.8" width="55.3" height="3" fill="#111722" opacity=".72"/><rect x="271.0" y="981.8" width="55.3" height="33.2" fill="#191f2d"/><rect x="271.0" y="981.8" width="55.3" height="3" fill="#111722" opacity=".72"/><rect x="356.3" y="981.8" width="55.3" height="33.2" fill="#f4da7e"/><rect x="356.3" y="981.8" width="55.3" height="3" fill="#111722" opacity=".72"/><rect x="441.7" y="981.8" width="55.3" height="33.2" fill="#60bedc"/><rect x="441.7" y="981.8" width="55.3" height="3" fill="#111722" opacity=".72"/>
<rect x="0" y="49.2" width="512" height="4" fill="#111722" opacity=".78"/><rect x="0" y="100.4" width="512" height="4" fill="#111722" opacity=".78"/><rect x="0" y="151.6" width="512" height="4" fill="#111722" opacity=".78"/><rect x="0" y="202.8" width="512" height="4" fill="#111722" opacity=".78"/><rect x="0" y="254.0" width="512" height="4" fill="#111722" opacity=".78"/><rect x="0" y="305.2" width="512" height="4" fill="#111722" opacity=".78"/><rect x="0" y="356.4" width="512" height="4" fill="#111722" opacity=".78"/><rect x="0" y="407.6" width="512" height="4" fill="#111722" opacity=".78"/><rect x="0" y="458.8" width="512" height="4" fill="#111722" opacity=".78"/><rect x="0" y="510.0" width="512" height="4" fill="#111722" opacity=".78"/><rect x="0" y="561.2" width="512" height="4" fill="#111722" opacity=".78"/><rect x="0" y="612.4" width="512" height="4" fill="#111722" opacity=".78"/><rect x="0" y="663.6" width="512" height="4" fill="#111722" opacity=".78"/><rect x="0" y="714.8" width="512" height="4" fill="#111722" opacity=".78"/><rect x="0" y="766.0" width="512" height="4" fill="#111722" opacity=".78"/><rect x="0" y="817.2" width="512" height="4" fill="#111722" opacity=".78"/><rect x="0" y="868.4" width="512" height="4" fill="#111722" opacity=".78"/><rect x="0" y="919.6" width="512" height="4" fill="#111722" opacity=".78"/><rect x="0" y="970.8" width="512" height="4" fill="#111722" opacity=".78"/>
<rect x="432" y="0" width="42" height="1024" fill="#121722"/><rect x="439" y="24" width="28" height="5" fill="#60bedc"/><rect x="439" y="82" width="28" height="5" fill="#f4da7e"/><rect x="439" y="140" width="28" height="5" fill="#60bedc"/><rect x="439" y="198" width="28" height="5" fill="#f4da7e"/><rect x="439" y="256" width="28" height="5" fill="#60bedc"/><rect x="439" y="314" width="28" height="5" fill="#f4da7e"/><rect x="439" y="372" width="28" height="5" fill="#60bedc"/><rect x="439" y="430" width="28" height="5" fill="#f4da7e"/><rect x="439" y="488" width="28" height="5" fill="#60bedc"/><rect x="439" y="546" width="28" height="5" fill="#f4da7e"/><rect x="439" y="604" width="28" height="5" fill="#60bedc"/><rect x="439" y="662" width="28" height="5" fill="#f4da7e"/><rect x="439" y="720" width="28" height="5" fill="#60bedc"/><rect x="439" y="778" width="28" height="5" fill="#f4da7e"/><rect x="439" y="836" width="28" height="5" fill="#60bedc"/><rect x="439" y="894" width="28" height="5" fill="#f4da7e"/><rect x="439" y="952" width="28" height="5" fill="#60bedc"/><rect x="439" y="1010" width="28" height="5" fill="#f4da7e"/>
<rect x="0" y="67" width="512" height="1" fill="#0d1119" opacity=".55"/><rect x="0" y="140" width="512" height="2" fill="#0d1119" opacity=".55"/><rect x="0" y="213" width="512" height="3" fill="#0d1119" opacity=".55"/><rect x="0" y="286" width="512" height="1" fill="#0d1119" opacity=".55"/><rect x="0" y="359" width="512" height="2" fill="#0d1119" opacity=".55"/><rect x="0" y="432" width="512" height="3" fill="#0d1119" opacity=".55"/><rect x="0" y="505" width="512" height="1" fill="#0d1119" opacity=".55"/><rect x="0" y="578" width="512" height="2" fill="#0d1119" opacity=".55"/><rect x="0" y="651" width="512" height="3" fill="#0d1119" opacity=".55"/><rect x="0" y="724" width="512" height="1" fill="#0d1119" opacity=".55"/><rect x="0" y="797" width="512" height="2" fill="#0d1119" opacity=".55"/><rect x="0" y="870" width="512" height="3" fill="#0d1119" opacity=".55"/><rect x="0" y="943" width="512" height="1" fill="#0d1119" opacity=".55"/><rect x="0" y="1016" width="512" height="2" fill="#0d1119" opacity=".55"/>
</svg>