<svg xmlns="http://www.w3.org/2000/svg" width="512" height="1024" viewBox="0 0 512 1024">
<rect width="512" height="1024" fill="#271f1d"/>
<rect x="6.0" y="0" width="90.4" height="1024" fill="#48332c"/><rect x="108.4" y="0" width="90.4" height="1024" fill="#48332c"/><rect x="210.8" y="0" width="90.4" height="1024" fill="#48332c"/><rect x="313.2" y="0" width="90.4" height="1024" fill="#48332c"/><rect x="415.6" y="0" width="90.4" height="1024" fill="#48332c"/>
<rect x="15.0" y="9.0" width="72.4" height="33.2" fill="#ffe291"/><rect x="15.0" y="9.0" width="72.4" height="3" fill="#111722" opacity=".72"/><rect x="117.4" y="9.0" width="72.4" height="33.2" fill="#f0a64b"/><rect x="117.4" y="9.0" width="72.4" height="3" fill="#111722" opacity=".72"/><rect x="219.8" y="9.0" width="72.4" height="33.2" fill="#271f1d"/><rect x="219.8" y="9.0" width="72.4" height="3" fill="#111722" opacity=".72"/><rect x="322.2" y="9.0" width="72.4" height="33.2" fill="#f0a64b"/><rect x="322.2" y="9.0" width="72.4" height="3" fill="#111722" opacity=".72"/><rect x="424.6" y="9.0" width="72.4" height="33.2" fill="#271f1d"/><rect x="424.6" y="9.0" width="72.4" height="3" fill="#111722" opacity=".72"/><rect x="15.0" y="60.2" width="72.4" height="33.2" fill="#271f1d"/><rect x="15.0" y="60.2" width="72.4" height="3" fill="#111722" opacity=".72"/><rect x="117.4" y="60.2" width="72.4" height="33.2" fill="#f0a64b"/><rect x="117.4" y="60.2" width="72.4" height="3" fill="#111722" opacity=".72"/><rect x="219.8" y="60.2" width="72.4" height="33.2" fill="#271f1d"/><rect x="219.8" y="60.2" width="72.4" height="3" fill="#111722" opacity=".72"/><rect x="322.2" y="60.2" width="72.4" height="33.2" fill="#ffe291"/><rect x="322.2" y="60.2" width="72.4" height="3" fill="#111722" opacity=".72"/><rect x="424.6" y="60.2" width="72.4" height="33.2" fill="#f0a64b"/><rect x="424.6" y="60.2" width="72.4" height="3" fill="#111722" opacity=".72"/><rect x="15.0" y="111.4" width="72.4" height="33.2" fill="#271f1d"/><rect x="15.0" y="111.4" width="72.4" height="3" fill="#111722" opacity=".72"/><rect x="117.4" y="111.4" width="72.4" height="33.2" fill="#f0a64b"/><rect x="117.4" y="111.4" width="72.4" height="3" fill="#111722" opacity=".72"/><rect x="219.8" y="111.4" width="72.4" height="33.2" fill="#ffe291"/><rect x="219.8" y="111.4" width="72.4" height="3" fill="#111722" opacity=".72"/><rect x="322.2" y="111.4" width="72.4" height="33.2" fill="#f0a64b"/><rect x="322.2" y="111.4" width="72.4" height="3" fill="#111722" opacity=".72"/><rect x="424.6" y="111.4" width="72.4" height="33.2" fill="#f0a64b"/><rect x="424.6" y="111.4" width="72.4" height="3" fill="#111722" opacity=".72"/><rect x="15.0" y="162.6" width="72.4" height="33.2" fill="#f0a64b"/><rect x="15.0" y="162.6" width="72.4" height="3" fill="#111722" opacity=".72"/><rect x="117.4" y="162.6" width="72.4" height="33.2" fill="#ffe291"/><rect x="117.4" y="162.6" width="72.4" height="3" fill="#111722" opacity=".72"/><rect x="219.8" y="162.6" width="72.4" height="33.2" fill="#f0a64b"/><rect x="219.8" y="162.6" width="72.4" height="3" fill="#111722" opacity=".72"/><rect x="322.2" y="162.6" width="72.4" height="33.2" fill="#271f1d"/><rect x="322.2" y="162.6" width="72.4" height="3" fill="#111722" opacity=".72"/><rect x="424.6" y="162.6" width="72.4" height="33.2" fill="#f0a64b"/><rect x="424.6" y="162.6" width="72.4" height="3" fill="#111722" opacity=".72"/><rect x="15.0" y="213.8" width="72.4" height="33.2" fill="#ffe291"/><rect x="15.0" y="213.8" width="72.4" height="3" fill="#111722" opacity=".72"/><rect x="117.4" y="213.8" width="72.4" height="33.2" fill="#271f1d"/><rect x="117.4" y="213.8" width="72.4" height="3" fill="#111722" opacity=".72"/><rect x="219.8" y="213.8" width="72.4" height="33.2" fill="#f0a64b"/><rect x="219.8" y="213.8" width="72.4" height="3" fill="#111722" opacity=".72"/><rect x="322.2" y="213.8" width="72.4" height="33.2" fill="#271f1d"/><rect x="322.2" y="213.8" width="72.4" height="3" fill="#111722" opacity=".72"/><rect x="424.6" y="213.8" width="72.4" height="33.2" fill="#ffe291"/><rect x="424.6" y="213.8" width="72.4" height="3" fill="#111722" opacity=".72"/><rect x="15.0" y="265.0" width="72.4" height="33.2" fill="#f0a64b"/><rect x="15.0" y="265.0" width="72.4" height="3" fill="#111722" opacity=".72"/><rect x="117.4" y="265.0" width="72.4" height="33.2" fill="#271f1d"/><rect x="117.4" y="265.0" width="72.4" height="3" fill="#111722" opacity=".72"/><rect x="219.8" y="265.0" width="72.4" height="33.2" fill="#f0a64b"/><rect x="219.8" y="265.0" width="72.4" height="3" fill="#111722" opacity=".72"/><rect x="322.2" y="265.0" width="72.4" height="33.2" fill="#ffe291"/><rect x="322.2" y="265.0" width="72.4" height="3" fill="#111722" opacity=".72"/><rect x="424.6" y="265.0" width="72.4" height="33.2" fill="#f0a64b"/><rect x="424.6" y="265.0" width="72.4" height="3" fill="#111722" opacity=".72"/><rect x="15.0" y="316.2" width="72.4" height="33.2" fill="#f0a64b"/><rect x="15.0" y="316.2" width="72.4" height="3" fill="#111722" opacity=".72"/><rect x="117.4" y="316.2" width="72.4" height="33.2" fill="#f0a64b"/><rect x="117.4" y="316.2" width="72.4" height="3" fill="#111722" opacity=".72"/><rect x="219.8" y="316.2" width="72.4" height="33.2" fill="#ffe291"/><rect x="219.8" y="316.2" width="72.4" height="3" fill="#111722" opacity=".72"/><rect x="322.2" y="316.2" width="72.4" height="33.2" fill="#f0a64b"/><rect x="322.2" y="316.2" width="72.4" height="3" fill="#111722" opacity=".72"/><rect x="424.6" y="316.2" width="72.4" height="33.2" fill="#271f1d"/><rect x="424.6" y="316.2" width="72.4" height="3" fill="#111722" opacity=".72"/><rect x="15.0" y="367.4" width="72.4" height="33.2" fill="#f0a64b"/><rect x="15.0" y="367.4" width="72.4" height="3" fill="#111722" opacity=".72"/><rect x="117.4" y="367.4" width="72.4" height="33.2" fill="#ffe291"/><rect x="117.4" y="367.4" width="72.4" height="3" fill="#111722" opacity=".72"/><rect x="219.8" y="367.4" width="72.4" height="33.2" fill="#271f1d"/><rect x="219.8" y="367.4" width="72.4" height="3" fill="#111722" opacity=".72"/><rect x="322.2" y="367.4" width="72.4" height="33.2" fill="#f0a64b"/><rect x="322.2" y="367.4" width="72.4" height="3" fill="#111722" opacity=".72"/><rect x="424.6" y="367.4" width="72.4" height="33.2" fill="#271f1d"/><rect x="424.6" y="367.4" width="72.4" height="3" fill="#111722" opacity=".72"/><rect x="15.0" y="418.6" width="72.4" height="33.2" fill="#271f1d"/><rect x="15.0" y="418.6" width="72.4" height="3" fill="#111722" opacity=".72"/><rect x="117.4" y="418.6" width="72.4" height="33.2" fill="#f0a64b"/><rect x="117.4" y="418.6" width="72.4" height="3" fill="#111722" opacity=".72"/><rect x="219.8" y="418.6" width="72.4" height="33.2" fill="#271f1d"/><rect x="219.8" y="418.6" width="72.4" height="3" fill="#111722" opacity=".72"/><rect x="322.2" y="418.6" width="72.4" height="33.2" fill="#f0a64b"/><rect x="322.2" y="418.6" width="72.4" height="3" fill="#111722" opacity=".72"/><rect x="424.6" y="418.6" width="72.4" height="33.2" fill="#ffe291"/><rect x="424.6" y="418.6" width="72.4" height="3" fill="#111722" opacity=".72"/><rect x="15.0" y="469.8" width="72.4" height="33.2" fill="#271f1d"/><rect x="15.0" y="469.8" width="72.4" height="3" fill="#111722" opacity=".72"/><rect x="117.4" y="469.8" width="72.4" height="33.2" fill="#f0a64b"/><rect x="117.4" y="469.8" width="72.4" height="3" fill="#111722" opacity=".72"/><rect x="219.8" y="469.8" width="72.4" height="33.2" fill="#f0a64b"/><rect x="219.8" y="469.8" width="72.4" height="3" fill="#111722" opacity=".72"/><rect x="322.2" y="469.8" width="72.4" height="33.2" fill="#ffe291"/><rect x="322.2" y="469.8" width="72.4" height="3" fill="#111722" opacity=".72"/><rect x="424.6" y="469.8" width="72.4" height="33.2" fill="#f0a64b"/><rect x="424.6" y="469.8" width="72.4" height="3" fill="#111722" opacity=".72"/><rect x="15.0" y="521.0" width="72.4" height="33.2" fill="#f0a64b"/><rect x="15.0" y="521.0" width="72.4" height="3" fill="#111722" opacity=".72"/><rect x="117.4" y="521.0" width="72.4" height="33.2" fill="#f0a64b"/><rect x="117.4" y="521.0" width="72.4" height="3" fill="#111722" opacity=".72"/><rect x="219.8" y="521.0" width="72.4" height="33.2" fill="#ffe291"/><rect x="219.8" y="521.0" width="72.4" height="3" fill="#111722" opacity=".72"/><rect x="322.2" y="521.0" width="72.4" height="33.2" fill="#271f1d"/><rect x="322.2" y="521.0" width="72.4" height="3" fill="#111722" opacity=".72"/><rect x="424.6" y="521.0" width="72.4" height="33.2" fill="#f0a64b"/><rect x="424.6" y="521.0" width="72.4" height="3" fill="#111722" opacity=".72"/><rect x="15.0" y="572.2" width="72.4" height="33.2" fill="#f0a64b"/><rect x="15.0" y="572.2" width="72.4" height="3" fill="#111722" opacity=".72"/><rect x="117.4" y="572.2" width="72.4" height="33.2" fill="#271f1d"/><rect x="117.4" y="572.2" width="72.4" height="3" fill="#111722" opacity=".72"/><rect x="219.8" y="572.2" width="72.4" height="33.2" fill="#f0a64b"/><rect x="219.8" y="572.2" width="72.4" height="3" fill="#111722" opacity=".72"/><rect x="322.2" y="572.2" width="72.4" height="33.2" fill="#271f1d"/><rect x="322.2" y="572.2" width="72.4" height="3" fill="#111722" opacity=".72"/><rect x="424.6" y="572.2" width="72.4" height="33.2" fill="#f0a64b"/><rect x="424.6" y="572.2" width="72.4" height="3" fill="#111722" opacity=".72"/><rect x="15.0" y="623.4" width="72.4" height="33.2" fill="#ffe291"/><rect x="15.0" y="623.4" width="72.4" height="3" fill="#111722" opacity=".72"/><rect x="117.4" y="623.4" width="72.4" height="33.2" fill="#271f1d"/><rect x="117.4" y="623.4" width="72.4" height="3" fill="#111722" opacity=".72"/><rect x="219.8" y="623.4" width="72.4" height="33.2" fill="#f0a64b"/><rect x="219.8" y="623.4" width="72.4" height="3" fill="#111722" opacity=".72"/><rect x="322.2" y="623.4" width="72.4" height="33.2" fill="#f0a64b"/><rect x="322.2" y="623.4" width="72.4" height="3" fill="#111722" opacity=".72"/><rect x="424.6" y="623.4" width="72.4" height="33.2" fill="#ffe291"/><rect x="424.6" y="623.4" width="72.4" height="3" fill="#111722" opacity=".72"/><rect x="15.0" y="674.6" width="72.4" height="33.2" fill="#f0a64b"/><rect x="15.0" y="674.6" width="72.4" height="3" fill="#111722" opacity=".72"/><rect x="117.4" y="674.6" width="72.4" height="33.2" fill="#f0a64b"/><rect x="117.4" y="674.6" width="72.4" height="3" fill="#111722" opacity=".72"/><rect x="219.8" y="674.6" width="72.4" height="33.2" fill="#f0a64b"/><rect x="219.8" y="674.6" width="72.4" height="3" fill="#111722" opacity=".72"/><rect x="322.2" y="674.6" width="72.4" height="33.2" fill="#ffe291"/><rect x="322.2" y="674.6" width="72.4" height="3" fill="#111722" opacity=".72"/><rect x="424.6" y="674.6" width="72.4" height="33.2" fill="#271f1d"/><rect x="424.6" y="674.6" width="72.4" height="3" fill="#111722" opacity=".72"/><rect x="15.0" y="725.8" width="72.4" height="33.2" fill="#f0a64b"/><rect x="15.0" y="725.8" width="72.4" height="3" fill="#111722" opacity=".72"/><rect x="117.4" y="725.8" width="72.4" height="33.2" fill="#f0a64b"/><rect x="117.4" y="725.8" width="72.4" height="3" fill="#111722" opacity=".72"/><rect x="219.8" y="725.8" width="72.4" height="33.2" fill="#271f1d"/><rect x="219.8" y="725.8" width="72.4" height="3" fill="#111722" opacity=".72"/><rect x="322.2" y="725.8" width="72.4" height="33.2" fill="#f0a64b"/><rect x="322.2" y="725.8" width="72.4" height="3" fill="#111722" opacity=".72"/><rect x="424.6" y="725.8" width="72.4" height="33.2" fill="#271f1d"/><rect x="424.6" y="725.8" width="72.4" height="3" fill="#111722" opacity=".72"/><rect x="15.0" y="777.0" width="72.4" height="33.2" fill="#271f1d"/><rect x="15.0" y="777.0" width="72.4" height="3" fill="#111722" opacity=".72"/><rect x="117.4" y="777.0" width="72.4" height="33.2" fill="#ffe291"/><rect x="117.4" y="777.0" width="72.4" height="3" fill="#111722" opacity=".72"/><rect x="219.8" y="777.0" width="72.4" height="33.2" fill="#271f1d"/><rect x="219.8" y="777.0" width="72.4" height="3" fill="#111722" opacity=".72"/><rect x="322.2" y="777.0" width="72.4" height="33.2" fill="#f0a64b"/><rect x="322.2" y="777.0" width="72.4" height="3" fill="#111722" opacity=".72"/><rect x="424.6" y="777.0" width="72.4" height="33.2" fill="#f0a64b"/><rect x="424.6" y="777.0" width="72.4" height="3" fill="#111722" opacity=".72"/><rect x="15.0" y="828.2" width="72.4" height="33.2" fill="#271f1d"/><rect x="15.0" y="828.2" width="72.4" height="3" fill="#111722" opacity=".72"/><rect x="117.4" y="828.2" width="72.4" height="33.2" fill="#f0a64b"/><rect x="117.4" y="828.2" width="72.4" height="3" fill="#111722" opacity=".72"/><rect x="219.8" y="828.2" width="72.4" height="33.2" fill="#f0a64b"/><rect x="219.8" y="828.2" width="72.4" height="3" fill="#111722" opacity=".72"/><rect x="322.2" y="828.2" width="72.4" height="33.2" fill="#f0a64b"/><rect x="322.2" y="828.2" width="72.4" height="3" fill="#111722" opacity=".72"/><rect x="424.6" y="828.2" width="72.4" height="33.2" fill="#ffe291"/><rect x="424.6" y="828.2" width="72.4" height="3" fill="#111722" opacity=".72"/><rect x="15.0" y="879.4" width="72.4" height="33.2" fill="#f0a64b"/><rect x="15.0" y="879.4" width="72.4" height="3" fill="#111722" opacity=".72"/><rect x="117.4" y="879.4" width="72.4" height="33.2" fill="#f0a64b"/><rect x="117.4" y="879.4" width="72.4" height="3" fill="#111722" opacity=".72"/><rect x="219.8" y="879.4" width="72.4" height="33.2" fill="#f0a64b"/><rect x="219.8" y="879.4" width="72.4" height="3" fill="#111722" opacity=".72"/><rect x="322.2" y="879.4" width="72.4" height="33.2" fill="#271f1d"/><rect x="322.2" y="879.4" width="72.4" height="3" fill="#111722" opacity=".72"/><rect x="424.6" y="879.4" width="72.4" height="33.2" fill="#f0a64b"/><rect x="424.6" y="879.4" width="72.4" height="3" fill="#111722" opacity=".72"/><rect x="15.0" y="930.6" width="72.4" height="33.2" fill="#f0a64b"/><rect x="15.0" y="930.6" width="72.4" height="3" fill="#111722" opacity=".72"/><rect x="117.4" y="930.6" width="72.4" height="33.2" fill="#271f1d"/><rect x="117.4" y="930.6" width="72.4" height="3" fill="#111722" opacity=".72"/><rect x="219.8" y="930.6" width="72.4" height="33.2" fill="#ffe291"/><rect x="219.8" y="930.6" width="72.4" height="3" fill="#111722" opacity=".72"/><rect x="322.2" y="930.6" width="72.4" height="33.2" fill="#271f1d"/><rect x="322.2" y="930.6" width="72.4" height="3" fill="#111722" opacity=".72"/><rect x="424.6" y="930.6" width="72.4" height="33.2" fill="#f0a64b"/><rect x="424.6" y="930.6" width="72.4" height="3" fill="#111722" opacity=".72"/><rect x="15.0" y="981.8" width="72.4" height="33.2" fill="#f0a64b"/><rect x="15.0" y="981.8" width="72.4" height="3" fill="#111722" opacity=".72"/><rect x="117.4" y="981.8" width="72.4" height="33.2" fill="#271f1d"/><rect x="117.4" y="981.8" width="72.4" height="3" fill="#111722" opacity=".72"/><rect x="219.8" y="981.8" width="72.4" height="33.2" fill="#f0a64b"/><rect x="219.8" y="981.8" width="72.4" height="3" fill="#111722" opacity=".72"/><rect x="322.2" y="981.8" width="72.4" height="33.2" fill="#f0a64b"/><rect x="322.2" y="981.8" width="72.4" height="3" fill="#111722" opacity=".72"/><rect x="424.6" y="981.8" width="72.4" height="33.2" fill="#f0a64b"/><rect x="424.6" y="981.8" width="72.4" height="3" fill="#111722" opacity=".72"/>
<rect x="0" y="49.2" width="512" height="4" fill="#111722" opacity=".78"/><rect x="0" y="100.4" width="512" height="4" fill="#111722" opacity=".78"/><rect x="0" y="151.6" width="512" height="4" fill="#111722" opacity=".78"/><rect x="0" y="202.8" width="512" height="4" fill="#111722" opacity=".78"/><rect x="0" y="254.0" width="512" height="4" fill="#111722" opacity=".78"/><rect x="0" y="305.2" width="512" height="4" fill="#111722" opacity=".78"/><rect x="0" y="356.4" width="512" height="4" fill="#111722" opacity=".78"/><rect x="0" y="407.6" width="512" height="4" fill="#111722" opacity=".78"/><rect x="0" y="458.8" width="512" height="4" fill="#111722" opacity=".78"/><rect x="0" y="510.0" width="512" height="4" fill="#111722" opacity=".78"/><rect x="0" y="561.2" width="512" height="4" fill="#111722" opacity=".78"/><rect x="0" y="612.4" width="512" height="4" fill="#111722" opacity=".78"/><rect x="0" y="663.6" width="512" height="4" fill="#111722" opacity=".78"/><rect x="0" y="714.8" width="512" height="4" fill="#111722" opacity=".78"/><rect x="0" y="766.0" width="512" height="4" fill="#111722" opacity=".78"/><rect x="0" y="817.2" width="512" height="4" fill="#111722" opacity=".78"/><rect x="0" y="868.4" width="512" height="4" fill="#111722" opacity=".78"/><rect x="0" y="919.6" width="512" height="4" fill="#111722" opacity=".78"/><rect x="0" y="970.8" width="512" height="4" fill="#111722" opacity=".78"/>
<rect x="34" y="0" width="42" height="1024" fill="#121722"/><rect x="41" y="24" width="28" height="5" fill="#f0a64b"/><rect x="41" y="82" width="28" height="5" fill="#ffe291"/><rect x="41" y="140" width="28" height="5" fill="#f0a64b"/><rect x="41" y="198" width="28" height="5" fill="#ffe291"/><rect x="41" y="256" width="28" height="5" fill="#f0a64b"/><rect x="41" y="314" width="28" height="5" fill="#ffe291"/><rect x="41" y="372" width="28" height="5" fill="#f0a64b"/><rect x="41" y="430" width="28" height="5" fill="#ffe291"/><rect x="41" y="488" width="28" height="5" fill="#f0a64b"/><rect x="41" y="546" width="28" height="5" fill="#ffe291"/><rect x="41" y="604" width="28" height="5" fill="#f0a64b"/><rect x="41" y="662" width="28" height="5" fill="#ffe291"/><rect x="41" y="720" width="28" height="5" fill="#f0a64b"/><rect x="41" y="778" width="28" height="5" fill="#ffe291"/><rect x="41" y="836" width="28" height="5" fill="#f0a64b"/><rect x="41" y="894" width="28" height="5" fill="#ffe291"/><rect x="41" y="952" width="28" height="5" fill="#f0a64b"/><rect x="41" y="1010" width="28" height="5" fill="#ffe291"/>
<rect x="0" y="268" width="512" height="1" fill="#0d1119" opacity=".55"/><rect x="0" y="341" width="512" height="2" fill="#0d1119" opacity=".55"/><rect x="0" y="414" width="512" height="3" fill="#0d1119" opacity=".55"/><rect x="0" y="487" width="512" height="1" fill="#0d1119" opacity=".55"/><rect x="0" y="560" width="512" height="2" fill="#0d1119" opacity=".55"/><rect x="0" y="633" width="512" height="3" fill="#0d1119" opacity=".55"/><rect x="0" y="706" width="512" height="1" fill="#0d1119" opacity=".55"/><rect x="0" y="779" width="512" height="2" fill="#0d1119" opacity=".55"/><rect x="0" y="852" width="512" height="3" fill="#0d1119" opacity=".55"/><rect x="0" y="925" width="512" height="1" fill="#0d1119" opacity=".55"/><rect x="0" y="998" width="512" height="2" fill="#0d1119" opacity=".55"/><rect x="0" y="47" width="512" height="3" fill="#0d1119" opacity=".55"/><rect x="0" y="120" width="512" height="1" fill="#0d1119" opacity=".55"/><rect x="0" y="193" width="512" height="2" fill="#0d1119" opacity=".55"/>
</svg>